<svg width="12" height="15" viewBox="0 0 12 15" fill="none" xmlns="http://www.w3.org/2000/svg">
<path d="M9.55017 3.38407C8.86557 2.55307 8.15758 1.69387 7.70398 0.783076C7.45318 0.278478 6.94198 -0.0347214 6.39298 0.00307845C5.85238 0.0336784 5.39818 0.377477 5.20859 0.900076C5.00519 1.46047 4.79999 2.48107 4.79999 3.49687C4.79999 4.86246 5.24278 5.71206 5.59918 6.39426C5.89318 6.95826 6.04498 7.27386 6.00358 7.72626C5.96878 8.11385 5.60698 8.41505 5.19119 8.41505C4.38419 8.40545 3.93179 7.96086 3.85139 5.64066C3.82799 4.97946 3.38399 4.42327 2.74619 4.25587C2.10839 4.08787 1.452 4.35547 1.1094 4.91826C0.593398 5.76486 0 6.91986 0 8.34845C0 11.6856 2.67719 14.4006 5.96758 14.4006C9.27297 14.3802 11.9994 11.6646 11.9994 8.36345C12.0324 6.39846 10.7706 4.86666 9.55017 3.38407ZM10.1994 8.34845C10.1994 10.6788 8.28658 12.5856 5.96758 12.6006C3.66959 12.6006 1.79999 10.6932 1.79999 8.34845C1.79999 7.86366 1.90499 7.37766 2.13119 6.84186C2.30699 8.28485 2.90759 10.1886 5.17079 10.215C6.51058 10.215 7.67758 9.19865 7.79578 7.88826C7.88638 6.88866 7.51918 6.18366 7.19458 5.56206C6.88858 4.97526 6.59938 4.42147 6.59938 3.49687C6.59938 3.18727 6.62458 2.86867 6.66478 2.57227C7.12018 3.26527 7.64638 3.90427 8.16058 4.52827C9.26637 5.87106 10.2216 7.03146 10.1994 8.34845Z" fill="#A8A6AC"/>
</svg>
