<svg width="14" height="11" viewBox="0 0 14 11" fill="none" xmlns="http://www.w3.org/2000/svg">
<path d="M11.2109 4.66667H9.57031C9.4768 4.66667 9.38711 4.68242 9.29687 4.69642V2.04167C9.29687 0.915833 8.43828 0 7.38281 0H5.74219C4.68672 0 3.82812 0.915833 3.82812 2.04167V3.52975C3.73789 3.51575 3.6482 3.5 3.55469 3.5H1.91406C0.858594 3.5 0 4.41583 0 5.54167V8.45833C0 9.58417 0.858594 10.5 1.91406 10.5H11.2109C12.2664 10.5 13.125 9.58417 13.125 8.45833V6.70833C13.125 5.5825 12.2664 4.66667 11.2109 4.66667ZM1.64062 8.45833V5.54167C1.64062 5.38125 1.76367 5.25 1.91406 5.25H3.55469C3.70508 5.25 3.82812 5.38125 3.82812 5.54167V8.75H1.91406C1.76367 8.75 1.64062 8.61875 1.64062 8.45833ZM5.46875 2.04167C5.46875 1.88125 5.5918 1.75 5.74219 1.75H7.38281C7.5332 1.75 7.65625 1.88125 7.65625 2.04167V8.75H5.46875V2.04167ZM11.4844 8.45833C11.4844 8.61875 11.3613 8.75 11.2109 8.75H9.29687V6.70833C9.29687 6.54792 9.41992 6.41667 9.57031 6.41667H11.2109C11.3613 6.41667 11.4844 6.54792 11.4844 6.70833V8.45833Z" fill="#A8A6AC"/>
</svg>
